<svg xmlns="http://www.w3.org/2000/svg" width="25" height="25" viewBox="0 0 50 50">
  <g fill="none" fill-rule="evenodd">
    <circle cx="25" cy="25" r="25" fill="#828282"/>
    <path fill="#FFF" d="M27.6089005,40.7630524 C27.0691257,41.3654648 26.4244048,41.6666667 25.6747157,41.6666667 C24.9250267,41.6666667 24.2803058,41.3654648 23.740531,40.7630524 C23.2007562,40.1606398 22.9308688,39.3909013 22.9308688,38.4538151 C22.9308688,37.516729 23.2007562,36.7469904 23.740531,36.1445778 L31.2073881,28.2128485 L11.9554926,28.2128485 C11.175817,28.2128485 10.5161009,27.894914 9.97632555,27.2590326 C9.43655035,26.6231574 9.16666667,25.8701517 9.16666667,24.9999969 C9.16666667,24.1298483 9.43655035,23.3768426 9.97632555,22.7409612 C10.5161009,22.1050798 11.175817,21.7871453 11.9554926,21.7871453 L31.2073881,21.7871453 L23.740531,13.8554185 C23.2007562,13.2530065 22.9308688,12.4832723 22.9308688,11.5461849 C22.9308688,10.6090975 23.2007562,9.83935711 23.740531,9.23694512 C24.2803058,8.63453313 24.9250267,8.33333333 25.6747157,8.33333333 C26.4244048,8.33333333 27.0691257,8.63453313 27.6089005,9.23694512 L40.0236767,22.6907633 C40.5634515,23.2931753 40.8333333,24.0629157 40.8333333,24.9999969 C40.8333333,25.9370843 40.5634515,26.7068247 40.0236767,27.3092367 L27.6089005,40.7630524 Z"/>
  </g>
</svg>
