<svg xmlns="http://www.w3.org/2000/svg" width="413.003" height="283.013" viewBox="0 0 413.003 283.013">
  <path id="footer_unten_links_logografik" d="M911.216,344.864H868.728a227.729,227.729,0,0,0-14-92.028A225.985,225.985,0,0,0,833.4,210.157a229.316,229.316,0,0,0-66.5-67.446,225.992,225.992,0,0,0-81.617-33.271,227.837,227.837,0,0,0-128.872,12.471A225.914,225.914,0,0,0,516.9,142.7c-5.951,3.929-11.807,8.211-17.4,12.725V103.453a268.131,268.131,0,0,1,90.9-35.666A270.416,270.416,0,0,1,743.356,82.594a268.271,268.271,0,0,1,46.9,24.678,272.185,272.185,0,0,1,78.6,79.54,268.235,268.235,0,0,1,39.334,103.345,271.6,271.6,0,0,1,3.03,54.706Zm-131.578,0H736.67a96.306,96.306,0,0,0-4.027-42.5,95.318,95.318,0,0,0-72.482-63.734,96.153,96.153,0,0,0-54.3,5.248A95.4,95.4,0,0,0,548.682,311h63.535a21.371,21.371,0,0,1,17.335,33.866H499.5V311h5.7a138,138,0,0,1,110.233-114.31,139.1,139.1,0,0,1,78.544,7.584A138.048,138.048,0,0,1,772.3,286.244a139.269,139.269,0,0,1,7.341,58.619Z" transform="translate(-499 -62.352)" fill="#205989" stroke="rgba(0,0,0,0)" stroke-miterlimit="10" stroke-width="1" opacity="0.2"/>
</svg>
