<svg xmlns="http://www.w3.org/2000/svg" width="413.506" height="282.179" viewBox="0 0 413.506 282.179">
  <path id="footer_oben_rechts_logografik" d="M-13615.391-7756.321a271.7,271.7,0,0,1-51.5-4.935,269.5,269.5,0,0,1-49.954-14.807,268.283,268.283,0,0,1-46.9-24.68,271.684,271.684,0,0,1-42.292-34.548,271.424,271.424,0,0,1-36.189-44.811,268.289,268.289,0,0,1-25.185-49.843,270.061,270.061,0,0,1-14.18-53.07,271.306,271.306,0,0,1-3.171-54.485h42.476a229,229,0,0,0,2.377,46.379,227.362,227.362,0,0,0,11.835,45.2,226.191,226.191,0,0,0,21.292,42.466,228.78,228.78,0,0,0,30.75,38.155,228.668,228.668,0,0,0,35.639,29.109,225.968,225.968,0,0,0,39.508,20.794,227.368,227.368,0,0,0,42.1,12.479,229.02,229.02,0,0,0,43.387,4.157,228.915,228.915,0,0,0,43.379-4.157,227.065,227.065,0,0,0,42.089-12.476,225.756,225.756,0,0,0,39.508-20.791c6.145-4.058,12.173-8.479,17.919-13.142v52.075a269.007,269.007,0,0,1-41.459,21.184,269.571,269.571,0,0,1-49.951,14.8A271.409,271.409,0,0,1-13615.391-7756.321Zm.038-131.231h-.014a139.839,139.839,0,0,1-26.436-2.526,138.572,138.572,0,0,1-25.651-7.586,137.567,137.567,0,0,1-24.07-12.65,138.959,138.959,0,0,1-21.689-17.707,139.061,139.061,0,0,1-19.337-24.223,137.65,137.65,0,0,1-13.109-27.042,138.819,138.819,0,0,1-6.887-28.778,139.758,139.758,0,0,1-.662-29.436h42.937a96.872,96.872,0,0,0-.216,21.243,96.019,96.019,0,0,0,4.475,20.86,95.145,95.145,0,0,0,9.165,19.623,95.749,95.749,0,0,0,13.858,17.532,95.927,95.927,0,0,0,14.988,12.235,95.252,95.252,0,0,0,16.634,8.743,95.911,95.911,0,0,0,17.733,5.245,96.7,96.7,0,0,0,18.278,1.746,96.685,96.685,0,0,0,18.277-1.746,95.861,95.861,0,0,0,17.734-5.245,94.933,94.933,0,0,0,16.633-8.743,95.9,95.9,0,0,0,14.992-12.235,95.4,95.4,0,0,0,16.313-21.77,95.089,95.089,0,0,0,9.283-24.613l-63.6,0a21.217,21.217,0,0,1-8.318-1.68,21.338,21.338,0,0,1-6.788-4.579,21.374,21.374,0,0,1-4.583-6.792,21.248,21.248,0,0,1-1.676-8.318,21.25,21.25,0,0,1,3.359-11.5h131.228v32.875h-6.161a137.877,137.877,0,0,1-12.95,40.737,137.837,137.837,0,0,1-25.889,35.869,139.071,139.071,0,0,1-21.686,17.7,137.589,137.589,0,0,1-24.069,12.643,138.409,138.409,0,0,1-25.655,7.59A139.624,139.624,0,0,1-13615.353-7887.552Z" transform="translate(13885.505 8038)" fill="#205989" stroke="rgba(0,0,0,0)" stroke-miterlimit="10" stroke-width="1" opacity="0.2"/>
</svg>
