<svg xmlns="http://www.w3.org/2000/svg" width="413.493" height="282.179" viewBox="0 0 413.493 282.179">
  <path id="footer_oben_rechts_logografik" d="M-13742.117-7756.321a271.479,271.479,0,0,0,51.452-4.925,269.448,269.448,0,0,0,50-14.817,268.261,268.261,0,0,0,46.9-24.681,271.643,271.643,0,0,0,42.291-34.548,271.384,271.384,0,0,0,36.192-44.811,268.354,268.354,0,0,0,25.182-49.843,270.071,270.071,0,0,0,14.18-53.07,271.288,271.288,0,0,0,3.172-54.485h-42.476a228.972,228.972,0,0,1-2.376,46.378,227.361,227.361,0,0,1-11.835,45.2,226.246,226.246,0,0,1-21.294,42.466,228.746,228.746,0,0,1-30.748,38.153,228.62,228.62,0,0,1-35.641,29.11,226,226,0,0,1-39.506,20.794,227.332,227.332,0,0,1-42.1,12.478,229,229,0,0,1-43.387,4.158,228.823,228.823,0,0,1-43.336-4.148,227.075,227.075,0,0,1-42.134-12.486,225.761,225.761,0,0,1-39.507-20.79c-6.145-4.058-12.173-8.479-17.919-13.142v52.075a268.888,268.888,0,0,0,41.458,21.185,269.661,269.661,0,0,0,49.953,14.8A271.474,271.474,0,0,0-13742.117-7756.321Zm-.038-131.231h.014a139.772,139.772,0,0,0,26.413-2.521,138.569,138.569,0,0,0,25.674-7.59,137.557,137.557,0,0,0,24.07-12.65,138.986,138.986,0,0,0,21.689-17.707,139.033,139.033,0,0,0,19.337-24.223,137.658,137.658,0,0,0,13.109-27.042,138.806,138.806,0,0,0,6.887-28.778,139.735,139.735,0,0,0,.662-29.436h-42.937a96.81,96.81,0,0,1,.217,21.243,96.015,96.015,0,0,1-4.477,20.859,95.172,95.172,0,0,1-9.163,19.624,95.8,95.8,0,0,1-13.86,17.532,95.968,95.968,0,0,1-14.987,12.235,95.262,95.262,0,0,1-16.635,8.744,95.918,95.918,0,0,1-17.733,5.245,96.682,96.682,0,0,1-18.277,1.747,96.62,96.62,0,0,1-18.258-1.743,95.9,95.9,0,0,1-17.755-5.249,94.855,94.855,0,0,1-16.631-8.743,95.792,95.792,0,0,1-14.994-12.235,95.393,95.393,0,0,1-16.313-21.77,95.1,95.1,0,0,1-9.282-24.613h63.6a21.206,21.206,0,0,0,8.318-1.68,21.35,21.35,0,0,0,6.787-4.58,21.368,21.368,0,0,0,4.584-6.792,21.237,21.237,0,0,0,1.676-8.318,21.252,21.252,0,0,0-3.359-11.5h-131.228v32.875h6.161a137.875,137.875,0,0,0,12.95,40.736,137.866,137.866,0,0,0,25.889,35.87,139.087,139.087,0,0,0,21.686,17.7,137.589,137.589,0,0,0,24.07,12.644,138.41,138.41,0,0,0,25.654,7.589,139.631,139.631,0,0,0,26.443,2.528Z" transform="translate(13885.508 8038)" fill="#205989" stroke="rgba(0,0,0,0)" stroke-miterlimit="10" stroke-width="1" opacity="0.2"/>
</svg>
