<svg xmlns="http://www.w3.org/2000/svg" width="382" height="133.191" viewBox="0 0 382 133.191">
  <path id="pfeilmuster_gross" d="M1100.863-974.952v59.139h-4.243v-63.079l-59.807-60.239v57.566h.058v4.242H978.832l60.953,61.785-3,3L975.36-974.952v59.139h-4.242v-63.078l-59.808-60.24v57.566h.057v4.242H853.328l60.953,61.785-3,3-61.425-62.414v59.139h-4.243v-65.752h61.454v-64.165h65.753v4.242H914.793l59.642,59.923h58.135v-64.165h65.753v4.242H1040.3l59.641,59.923h58.135v-64.165h65.753v4.242H1165.8l61.814,62.105-3,3-62.3-62.748v57.566h.057v4.242h-58.039l60.953,61.785-3,3Z" transform="translate(-845.614 1045.729)" fill="#fff"/>
</svg>
