<svg xmlns="http://www.w3.org/2000/svg" width="245" height="85.424" viewBox="0 0 245 85.424">
  <path id="pfeimuster_klein" d="M163.706,45.394v37.93h-2.721V42.867L122.628,4.233v36.92h.037v2.721H85.441L124.533,83.5l-1.923,1.924-39.4-40.029v37.93H80.493V42.868L42.134,4.233v36.92h.037v2.721H4.947L44.041,83.5l-1.924,1.924L2.721,45.394v37.93H0V41.153H39.414V0H81.585V2.721H44.369L82.62,41.153h37.287V0h42.171V2.721H124.862l38.251,38.432H200.4V0h42.171V2.721H205.355L245,42.553l-1.923,1.923L203.121,4.233v36.92h.036v2.721H165.933L205.026,83.5,203.1,85.424Z" fill="#61bfdb"/>
</svg>
