<svg xmlns="http://www.w3.org/2000/svg"  viewBox="0 0 379 132.146">
  <g id="Gruppe_1025" data-name="Gruppe 1025" transform="translate(-3732.614 -7825)">
    <g id="Gruppe_890" data-name="Gruppe 890" transform="translate(3732.614 7825)">
      <g id="Gruppe_788" data-name="Gruppe 788" transform="translate(0 63.66)">
        <path id="Vereinigungsmenge_4" data-name="Vereinigungsmenge 4" d="M0,2.976l60.474,61.3H2.891v4.209H68.128V3.249H63.918V61.923L2.976,0Z" transform="translate(68.128 68.485) rotate(180)" fill="#61bfdb"/>
      </g>
      <g id="Gruppe_789" data-name="Gruppe 789" transform="translate(60.971 0)">
        <path id="Vereinigungsmenge_4-2" data-name="Vereinigungsmenge 4" d="M0,2.976,61.329,64.594H3.757V68.8H68.994V3.566H64.785V62.255L2.976,0Z" transform="translate(68.994 68.803) rotate(180)" fill="#61bfdb"/>
      </g>
    </g>
    <g id="Gruppe_891" data-name="Gruppe 891" transform="translate(3857.132 7825)">
      <g id="Gruppe_788-2" data-name="Gruppe 788" transform="translate(0 63.66)">
        <path id="Vereinigungsmenge_4-3" data-name="Vereinigungsmenge 4" d="M0,2.976l60.474,61.3H2.891v4.209H68.128V3.249H63.918V61.923L2.976,0Z" transform="translate(68.128 68.485) rotate(180)" fill="#61bfdb"/>
      </g>
      <g id="Gruppe_789-2" data-name="Gruppe 789" transform="translate(60.971 0)">
        <path id="Vereinigungsmenge_4-4" data-name="Vereinigungsmenge 4" d="M0,2.976,61.329,64.594H3.757V68.8H68.994V3.566H64.785V62.255L2.976,0Z" transform="translate(68.994 68.803) rotate(180)" fill="#61bfdb"/>
      </g>
    </g>
    <g id="Gruppe_892" data-name="Gruppe 892" transform="translate(3981.649 7825)">
      <g id="Gruppe_788-3" data-name="Gruppe 788" transform="translate(0 63.66)">
        <path id="Vereinigungsmenge_4-5" data-name="Vereinigungsmenge 4" d="M0,2.976l60.474,61.3H2.891v4.209H68.128V3.249H63.918V61.923L2.976,0Z" transform="translate(68.128 68.485) rotate(180)" fill="#61bfdb"/>
      </g>
      <g id="Gruppe_789-3" data-name="Gruppe 789" transform="translate(60.971 0)">
        <path id="Vereinigungsmenge_4-6" data-name="Vereinigungsmenge 4" d="M0,2.976,61.329,64.594H3.757V68.8H68.994V3.566H64.785V62.255L2.976,0Z" transform="translate(68.994 68.803) rotate(180)" fill="#61bfdb"/>
      </g>
    </g>
  </g>
</svg>
