<svg xmlns="http://www.w3.org/2000/svg" width="78.798" height="78.799" viewBox="0 0 78.798 78.799">
  <g id="Gruppe_914" data-name="Gruppe 914" transform="translate(0.5 0.501)">
    <path id="Differenzmenge_6" data-name="Differenzmenge 6" d="M38.9,77.8A38.909,38.909,0,0,1,23.756,3.057,38.89,38.89,0,0,1,77.8,38.9a38.491,38.491,0,0,1-2.586,13.932A39.917,39.917,0,0,1,67.975,64.74a38.3,38.3,0,0,1-12.747,9.493A38.781,38.781,0,0,1,38.9,77.8Zm0-71.675A32.787,32.787,0,0,0,26.14,69.1,32.786,32.786,0,0,0,51.656,8.7,32.57,32.57,0,0,0,38.9,6.123Z" transform="translate(0)" fill="#042745" stroke="rgba(0,0,0,0)" stroke-miterlimit="10" stroke-width="1"/>
    <path id="Pfad_9" data-name="Pfad 9" d="M71.235,91.18A19.97,19.97,0,1,1,91.2,71.209,19.992,19.992,0,0,1,71.235,91.18Zm0-33.772a13.8,13.8,0,1,0,13.8,13.8A13.817,13.817,0,0,0,71.235,57.408Z" transform="translate(-32.336 -32.319)" fill="#042745"/>
    <path id="Linie_1" data-name="Linie 1" d="M-5.267,19.7a3.073,3.073,0,0,1-2.18-.9,3.083,3.083,0,0,1,0-4.361L14.438-7.447a3.083,3.083,0,0,1,4.361,0,3.083,3.083,0,0,1,0,4.361L-3.086,18.8A3.074,3.074,0,0,1-5.267,19.7Z" transform="translate(47.202 19.26)" fill="#042745"/>
  </g>
</svg>
