<svg xmlns="http://www.w3.org/2000/svg" width="83.555" height="104.389" viewBox="0 0 83.555 104.389">
  <path id="puezbau_logo_bildwortmarke" d="M-3172-8003.089a5.223,5.223,0,0,1-1.839-.535,4.667,4.667,0,0,1-1.353-1.137,4.227,4.227,0,0,1-.84-1.516,8.152,8.152,0,0,1-.364-2.228v-7.847h3.937v8.03a2.342,2.342,0,0,0,.578,1.682,2.107,2.107,0,0,0,1.6.606,2.1,2.1,0,0,0,1.591-.6,2.322,2.322,0,0,0,.578-1.69v-8.03h3.939v7.847a6.846,6.846,0,0,1-.352,2.205,4.812,4.812,0,0,1-1.1,1.813,4.386,4.386,0,0,1-1.579,1.091,7.686,7.686,0,0,1-2.759.441A17.3,17.3,0,0,1-3172-8003.089Zm57.708-.014a5.2,5.2,0,0,1-1.841-.535,4.661,4.661,0,0,1-1.353-1.135,4.225,4.225,0,0,1-.838-1.518,8.091,8.091,0,0,1-.366-2.228v-7.847h3.939v8.03a2.331,2.331,0,0,0,.578,1.683,2.1,2.1,0,0,0,1.6.606,2.115,2.115,0,0,0,1.591-.6,2.34,2.34,0,0,0,.578-1.693v-8.03h3.937v7.847a6.785,6.785,0,0,1-.352,2.206,4.748,4.748,0,0,1-1.1,1.813,4.375,4.375,0,0,1-1.579,1.093,7.718,7.718,0,0,1-2.757.439A16.861,16.861,0,0,1-3114.288-8003.1Zm-48.383-.073v-2.734l7.086-7.629h-6.4v-2.812h11.159v2.633l-7.161,7.708h7.42v2.834Zm-26.281,0v-13.175h6.553a4.39,4.39,0,0,1,3.206,1.052,4,4,0,0,1,1.066,2.991,4.13,4.13,0,0,1-1.162,3.117,4.93,4.93,0,0,1-3.546,1.123h-2.158v4.893Zm3.959-7.562h.964a2.423,2.423,0,0,0,1.6-.407,1.333,1.333,0,0,0,.46-1.045,1.494,1.494,0,0,0-.4-1.05,2.033,2.033,0,0,0-1.506-.431h-1.121Zm61.956,7.547-.637-2.17h-4.472l-.629,2.17h-4.028l4.793-13.175h4.319l4.783,13.175Zm-4.258-5.015h2.8l-1.4-4.742Zm-17.775,5.015v-13.175h7.381a3.945,3.945,0,0,1,2.832.944,3.1,3.1,0,0,1,.989,2.338,3.007,3.007,0,0,1-.706,2,3.128,3.128,0,0,1-1.373.881,3.554,3.554,0,0,1,2.022,1.172,3.3,3.3,0,0,1,.647,2.089,3.691,3.691,0,0,1-.462,1.843A3.455,3.455,0,0,1-3135-8003.8a4.084,4.084,0,0,1-1.5.431,16.554,16.554,0,0,1-1.766.179Zm3.979-2.833h2.01a2.163,2.163,0,0,0,1.436-.373,1.274,1.274,0,0,0,.417-1,1.178,1.178,0,0,0-.413-.938,2.262,2.262,0,0,0-1.448-.356h-2Zm0-5.17h1.715a1.91,1.91,0,0,0,1.281-.33,1.211,1.211,0,0,0,.362-.95,1.143,1.143,0,0,0-.362-.9,1.888,1.888,0,0,0-1.257-.323h-1.74Zm-28.476-6.656v-2.38h2.378v2.38Zm-3.823,0v-2.38h2.38v2.38Zm9.594-9.177a41.167,41.167,0,0,1-13.118-8.846,41.167,41.167,0,0,1-8.845-13.124,41.011,41.011,0,0,1-3.243-16.068,41,41,0,0,1,3.243-16.066,41.17,41.17,0,0,1,8.845-13.122,41.159,41.159,0,0,1,13.118-8.846,41.015,41.015,0,0,1,16.068-3.245,41.03,41.03,0,0,1,16.068,3.245,41.178,41.178,0,0,1,13.122,8.846,41.17,41.17,0,0,1,8.845,13.122,41.007,41.007,0,0,1,3.245,16.066,41.027,41.027,0,0,1-3.245,16.068,41.21,41.21,0,0,1-8.845,13.124,41.186,41.186,0,0,1-13.122,8.846,41.014,41.014,0,0,1-16.068,3.243A41.012,41.012,0,0,1-3163.794-8027.028Zm2.531-70.082a34.619,34.619,0,0,0-11.055,7.454,34.652,34.652,0,0,0-7.454,11.053,34.573,34.573,0,0,0-2.732,13.537,34.571,34.571,0,0,0,2.732,13.539,34.66,34.66,0,0,0,7.454,11.057,34.635,34.635,0,0,0,11.055,7.454,34.556,34.556,0,0,0,13.537,2.732,34.563,34.563,0,0,0,13.537-2.732,34.665,34.665,0,0,0,11.057-7.454,34.688,34.688,0,0,0,7.454-11.057,34.573,34.573,0,0,0,2.734-13.539,34.575,34.575,0,0,0-2.734-13.537,34.553,34.553,0,0,0-5.24-8.625l-9.685,9.685a21.079,21.079,0,0,1,4.066,12.468,21.213,21.213,0,0,1-21.187,21.19,21.214,21.214,0,0,1-21.188-21.19,21.212,21.212,0,0,1,21.188-21.188,21.071,21.071,0,0,1,12.5,4.089l9.682-9.682a34.583,34.583,0,0,0-8.646-5.255,34.529,34.529,0,0,0-13.537-2.734A34.522,34.522,0,0,0-3161.263-8097.11Zm-1.107,32.036a14.664,14.664,0,0,0,14.646,14.648,14.663,14.663,0,0,0,14.644-14.648,14.561,14.561,0,0,0-2.229-7.762l-6.879,6.879a3.263,3.263,0,0,1-2.313.958,3.265,3.265,0,0,1-2.315-.958,3.271,3.271,0,0,1,0-4.626l6.886-6.886a14.558,14.558,0,0,0-7.794-2.251A14.663,14.663,0,0,0-3162.37-8065.074Z" transform="translate(3189.5 8106.844)" fill="#61bfdb" stroke="rgba(0,0,0,0)" stroke-miterlimit="10" stroke-width="1"/>
</svg>
