<svg id="Gruppe_1270" data-name="Gruppe 1270" xmlns="http://www.w3.org/2000/svg" xmlns:xlink="http://www.w3.org/1999/xlink" width="77.8" height="97.432" viewBox="0 0 77.8 97.432">
  <defs>
    <clipPath id="clip-path">
      <rect id="Rechteck_2" data-name="Rechteck 2" width="77.8" height="97.432" fill="#fff"/>
    </clipPath>
  </defs>
  <g id="Gruppe_1" data-name="Gruppe 1" clip-path="url(#clip-path)">
    <path id="Pfad_1" data-name="Pfad 1" d="M.127,229.657H6.3a4.144,4.144,0,0,1,3.023.991,3.781,3.781,0,0,1,1,2.818,3.894,3.894,0,0,1-1.1,2.937,4.647,4.647,0,0,1-3.342,1.058H3.858v4.612H.127Zm3.731,5.29h.909a2.284,2.284,0,0,0,1.508-.385,1.257,1.257,0,0,0,.434-.985,1.4,1.4,0,0,0-.377-.989,1.914,1.914,0,0,0-1.417-.406H3.858Z" transform="translate(-0.08 -144.85)" fill="#fff"/>
    <path id="Pfad_2" data-name="Pfad 2" d="M39.982,223.415h3.711v7.4a6.409,6.409,0,0,1-.333,2.078,4.508,4.508,0,0,1-1.041,1.709,4.143,4.143,0,0,1-1.488,1.028,7.266,7.266,0,0,1-2.6.415,15.917,15.917,0,0,1-1.914-.127,4.884,4.884,0,0,1-1.733-.5,4.368,4.368,0,0,1-1.275-1.07,3.972,3.972,0,0,1-.791-1.43,7.644,7.644,0,0,1-.345-2.1v-7.4h3.711v7.568a2.206,2.206,0,0,0,.544,1.585,2.28,2.28,0,0,0,3.007.008,2.2,2.2,0,0,0,.544-1.594Zm-4.974-3.655H37.25V222H35.008Zm3.6,0h2.242V222H38.61Z" transform="translate(-20.294 -138.608)" fill="#fff"/>
    <path id="Pfad_3" data-name="Pfad 3" d="M67.845,229.658H78.361v2.48L71.613,239.4H78.6v2.671H67.2V239.5l6.678-7.188h-6.03Z" transform="translate(-42.383 -144.85)" fill="#fff"/>
    <path id="Pfad_4" data-name="Pfad 4" d="M112.115,229.622h6.956a3.715,3.715,0,0,1,2.669.89,2.923,2.923,0,0,1,.932,2.2,2.836,2.836,0,0,1-.664,1.889,2.943,2.943,0,0,1-1.3.83,3.341,3.341,0,0,1,1.905,1.1,3.109,3.109,0,0,1,.611,1.969,3.471,3.471,0,0,1-.435,1.736,3.258,3.258,0,0,1-1.189,1.219,3.822,3.822,0,0,1-1.411.406,15.575,15.575,0,0,1-1.665.17h-6.414Zm3.751,4.873h1.616a1.806,1.806,0,0,0,1.209-.31,1.147,1.147,0,0,0,.341-.895,1.081,1.081,0,0,0-.341-.848,1.781,1.781,0,0,0-1.185-.305h-1.639Zm0,4.872h1.894a2.031,2.031,0,0,0,1.353-.352,1.2,1.2,0,0,0,.394-.944,1.109,1.109,0,0,0-.39-.885,2.123,2.123,0,0,0-1.365-.335h-1.885Z" transform="translate(-70.714 -144.828)" fill="#fff"/>
    <path id="Pfad_5" data-name="Pfad 5" d="M152.025,239.993h-4.214l-.592,2.045h-3.8l4.517-12.416h4.071l4.507,12.416h-3.893Zm-.777-2.681-1.318-4.468-1.317,4.468Z" transform="translate(-90.46 -144.828)" fill="#fff"/>
    <path id="Pfad_6" data-name="Pfad 6" d="M187.252,229.622h3.711v7.4a6.407,6.407,0,0,1-.332,2.078,4.511,4.511,0,0,1-1.041,1.709,4.13,4.13,0,0,1-1.488,1.028,7.262,7.262,0,0,1-2.6.415,15.921,15.921,0,0,1-1.915-.127,4.891,4.891,0,0,1-1.734-.5,4.38,4.38,0,0,1-1.275-1.07,3.965,3.965,0,0,1-.791-1.43,7.643,7.643,0,0,1-.345-2.1v-7.4h3.711v7.568a2.206,2.206,0,0,0,.544,1.585,2.279,2.279,0,0,0,3.008.008,2.2,2.2,0,0,0,.544-1.594Z" transform="translate(-113.181 -144.828)" fill="#fff"/>
    <path id="Pfad_4427" data-name="Pfad 4427" d="M0,62.814Z" transform="translate(0 14.987)" fill="#fff"/>
    <path id="Differenzmenge_20" data-name="Differenzmenge 20" d="M38.9,77.8A38.912,38.912,0,0,1,23.755,3.057,38.911,38.911,0,0,1,54.038,74.746,38.65,38.65,0,0,1,38.9,77.8Zm0-71.678A32.786,32.786,0,0,0,26.138,69.1,32.786,32.786,0,0,0,51.654,8.7,32.565,32.565,0,0,0,38.9,6.126Z" transform="translate(0.002 -0.001)" fill="#fff" stroke="rgba(0,0,0,0)" stroke-miterlimit="10" stroke-width="1"/>
    <path id="Pfad_9" data-name="Pfad 9" d="M71.235,91.181A19.97,19.97,0,1,1,91.2,71.21,19.992,19.992,0,0,1,71.235,91.181Zm0-33.773a13.8,13.8,0,1,0,13.8,13.8A13.817,13.817,0,0,0,71.235,57.408Z" transform="translate(-32.335 -32.319)" fill="#fff"/>
    <path id="Linie_1" data-name="Linie 1" d="M-5.267,19.7a3.074,3.074,0,0,1-2.18-.9,3.083,3.083,0,0,1,0-4.361L14.439-7.447a3.083,3.083,0,0,1,4.361,0,3.083,3.083,0,0,1,0,4.361L-3.086,18.8A3.074,3.074,0,0,1-5.267,19.7Z" transform="translate(47.203 19.26)" fill="#fff"/>
  </g>
</svg>
