<svg viewBox="0 0 22.787 22.786" xmlns="http://www.w3.org/2000/svg" xmlns:xlink="http://www.w3.org/1999/xlink"><clipPath id="a"><path d="m0 0h22.787v22.786h-22.787z"/></clipPath><g clip-path="url(#a)"><path d="m18.222 5.158a1.285 1.285 0 1 1 -1.285-1.285 1.285 1.285 0 0 1 1.285 1.285m-1.6 5.76a5.4 5.4 0 1 1 -5.4-5.4 5.4 5.4 0 0 1 5.4 5.4m-1.94 0a3.457 3.457 0 1 0 -3.457 3.457 3.462 3.462 0 0 0 3.457-3.457m7.467-4.336a6.583 6.583 0 0 0 -6.583-6.582h-8.983a6.583 6.583 0 0 0 -6.583 6.583v8.983a6.583 6.583 0 0 0 6.583 6.583h8.984a6.583 6.583 0 0 0 6.583-6.583zm-2.161 8.884a4.521 4.521 0 0 1 -4.522 4.521h-8.784a4.521 4.521 0 0 1 -4.522-4.521v-8.784a4.521 4.521 0 0 1 4.522-4.521h8.784a4.521 4.521 0 0 1 4.522 4.521z" fill="#61bfdb" transform="translate(.319 .257)"/></g></svg>