<svg xmlns="http://www.w3.org/2000/svg" viewBox="0 0 244.459 122.914">
  <path id="logo_muster" d="M-2941.129-8430.747a30.836,30.836,0,0,1,0-43.608l.007,0a30.683,30.683,0,0,1,15.638-8.411,30.687,30.687,0,0,1-16.016-8.485,30.834,30.834,0,0,1,0-43.608,30.721,30.721,0,0,1,10.8-7.013,30.734,30.734,0,0,1-10.421-6.86,30.836,30.836,0,0,1,0-43.608l.007,0a30.677,30.677,0,0,1,15.642-8.411,30.7,30.7,0,0,1-16.02-8.485,30.834,30.834,0,0,1,0-43.608,30.834,30.834,0,0,1,43.606,0l.006,0a30.7,30.7,0,0,1,7.931,13.624,30.7,30.7,0,0,1,8.641-16.911,30.836,30.836,0,0,1,43.609,0,30.836,30.836,0,0,1,0,43.608l-.007,0a30.67,30.67,0,0,1-15.8,8.443,30.7,30.7,0,0,1,15.856,8.453,30.833,30.833,0,0,1,0,43.609,30.733,30.733,0,0,1-10.639,6.949,30.728,30.728,0,0,1,10.58,6.923,30.837,30.837,0,0,1,0,43.609l-.007,0a30.677,30.677,0,0,1-15.8,8.443,30.694,30.694,0,0,1,15.856,8.453,30.832,30.832,0,0,1,0,43.608,30.831,30.831,0,0,1-43.606.007l-.007-.007a30.7,30.7,0,0,1-7.729-12.922,30.693,30.693,0,0,1-8.521,16.209,30.732,30.732,0,0,1-21.807,9.034A30.748,30.748,0,0,1-2941.129-8430.747Zm3.437-40.183a25.982,25.982,0,0,0-.007,36.745,25.984,25.984,0,0,0,36.745.009v0l.009-.007a25.915,25.915,0,0,0,7.592-19.22h-10.181a15.809,15.809,0,0,1-4.6,12.043,15.829,15.829,0,0,1-22.387,0,15.828,15.828,0,0,1,0-22.385,15.764,15.764,0,0,1,8.765-4.451v-10.226A25.879,25.879,0,0,0-2937.692-8470.93Zm59.853,33.454a25.983,25.983,0,0,0,36.745.009,25.982,25.982,0,0,0,.009-36.745l-.009-.009a25.874,25.874,0,0,0-15.985-7.5v10.241a15.771,15.771,0,0,1,8.808,4.448,15.832,15.832,0,0,1,0,22.388,15.829,15.829,0,0,1-22.387,0,15.758,15.758,0,0,1-4.451-8.765h-10.223A25.879,25.879,0,0,0-2877.84-8437.476Zm-49.23-22.818a10.942,10.942,0,0,0-.007,15.474,10.943,10.943,0,0,0,15.474.009,10.942,10.942,0,0,0,.007-15.474l0,0a10.894,10.894,0,0,0-5.275-2.921v7.264a2.437,2.437,0,0,1-.716,1.728,2.447,2.447,0,0,1-3.457,0,2.437,2.437,0,0,1-.716-1.731v-7.27A10.9,10.9,0,0,0-2927.07-8460.294Zm59.868,12.2a10.94,10.94,0,0,0,15.472.009,10.938,10.938,0,0,0,.007-15.474,10.94,10.94,0,0,0-15.472-.009l0,0a10.9,10.9,0,0,0-2.921,5.275h7.263a2.446,2.446,0,0,1,1.729.716,2.444,2.444,0,0,1,0,3.457,2.438,2.438,0,0,1-1.729.716h-7.271A10.9,10.9,0,0,0-2867.2-8448.1Zm-7.9-10.194a15.764,15.764,0,0,1,4.445-8.734,15.775,15.775,0,0,1,8.689-4.431v-10.249a25.882,25.882,0,0,0-15.867,7.492,25.879,25.879,0,0,0-7.492,15.922Zm-18.874,0a25.874,25.874,0,0,0-6.974-12.637,25.872,25.872,0,0,0-15.924-7.492v10.228a15.76,15.76,0,0,1,8.734,4.443v0a15.8,15.8,0,0,1,3.558,5.456Zm-3.545-16.065a30.7,30.7,0,0,1,7.732,12.925,30.692,30.692,0,0,1,8.523-16.212,30.687,30.687,0,0,1,15.8-8.444,30.707,30.707,0,0,1-15.859-8.456,30.7,30.7,0,0,1-7.933-13.627,30.7,30.7,0,0,1-8.644,16.914,30.7,30.7,0,0,1-15.642,8.412A30.693,30.693,0,0,1-2897.523-8474.358Zm-40.55-57.079a25.983,25.983,0,0,0-.009,36.746v0l.009.006a25.874,25.874,0,0,0,16.309,7.525v-10.223a15.783,15.783,0,0,1-9.133-4.494,15.832,15.832,0,0,1,0-22.388,15.829,15.829,0,0,1,22.387,0,15.76,15.76,0,0,1,4.451,8.765h10.224a25.877,25.877,0,0,0-7.491-15.929,25.9,25.9,0,0,0-18.377-7.614A25.906,25.906,0,0,0-2938.073-8531.437Zm21.2,44.207a25.87,25.87,0,0,0,15.546-7.459,25.88,25.88,0,0,0,7.492-15.922h-10.227a15.76,15.76,0,0,1-4.444,8.734,15.788,15.788,0,0,1-8.367,4.377Zm59.8-3.253a25.876,25.876,0,0,0,15.926-7.491,25.984,25.984,0,0,0,.009-36.745,25.987,25.987,0,0,0-36.747-.009l-.007.009a25.906,25.906,0,0,0-7.593,19.22h10.18a15.811,15.811,0,0,1,4.6-12.041,15.829,15.829,0,0,1,22.387,0,15.826,15.826,0,0,1,0,22.385,15.755,15.755,0,0,1-8.763,4.451Zm-20.812-7.493a25.876,25.876,0,0,0,15.922,7.492v-10.226a15.759,15.759,0,0,1-8.734-4.443,15.811,15.811,0,0,1-3.559-5.458h-10.6A25.861,25.861,0,0,0-2877.892-8497.977Zm-49.548-22.836a10.942,10.942,0,0,0-.007,15.474,10.942,10.942,0,0,0,15.474.007l0,0a10.9,10.9,0,0,0,2.92-5.275h-7.262a2.437,2.437,0,0,1-1.729-.716,2.444,2.444,0,0,1,0-3.457,2.437,2.437,0,0,1,1.729-.716h7.27a10.9,10.9,0,0,0-2.926-5.306,10.911,10.911,0,0,0-7.74-3.209A10.91,10.91,0,0,0-2927.439-8520.812Zm69.642,6.126a2.449,2.449,0,0,1,.718,1.732v7.269a10.905,10.905,0,0,0,5.3-2.925,10.94,10.94,0,0,0,.007-15.474,10.938,10.938,0,0,0-15.472-.007,10.942,10.942,0,0,0-.009,15.474l0,0a10.9,10.9,0,0,0,5.275,2.92v-7.265a2.433,2.433,0,0,1,.716-1.727,2.435,2.435,0,0,1,1.729-.717A2.44,2.44,0,0,1-2857.8-8514.687Zm-40.106-20.184.006.007a30.683,30.683,0,0,1,7.931,13.623,30.7,30.7,0,0,1,8.642-16.912,30.718,30.718,0,0,1,10.64-6.949,30.742,30.742,0,0,1-10.579-6.924l-.007,0a30.7,30.7,0,0,1-7.729-12.923,30.7,30.7,0,0,1-8.521,16.21,30.716,30.716,0,0,1-10.8,7.012A30.76,30.76,0,0,1-2897.9-8534.87Zm-39.789-54.051a25.982,25.982,0,0,0-.007,36.745,25.983,25.983,0,0,0,36.745.009v0l.009-.007a25.908,25.908,0,0,0,7.592-19.218h-10.181a15.8,15.8,0,0,1-4.6,12.039,15.829,15.829,0,0,1-22.387,0,15.828,15.828,0,0,1,0-22.385,15.764,15.764,0,0,1,8.765-4.451v-10.224A25.881,25.881,0,0,0-2937.692-8588.921Zm59.853,33.454a25.984,25.984,0,0,0,36.745.009,25.982,25.982,0,0,0,.009-36.745l-.009-.009a25.868,25.868,0,0,0-15.985-7.5v10.241a15.783,15.783,0,0,1,8.808,4.448,15.831,15.831,0,0,1,0,22.387,15.831,15.831,0,0,1-22.387,0,15.755,15.755,0,0,1-4.451-8.763h-10.223A25.875,25.875,0,0,0-2877.84-8555.467Zm-49.23-22.818a10.942,10.942,0,0,0-.007,15.474,10.942,10.942,0,0,0,15.474.007,10.942,10.942,0,0,0,.007-15.474l0,0a10.888,10.888,0,0,0-5.275-2.922v7.264a2.445,2.445,0,0,1-.716,1.729,2.443,2.443,0,0,1-3.457,0,2.437,2.437,0,0,1-.716-1.731v-7.271A10.9,10.9,0,0,0-2927.07-8578.285Zm59.868,12.2a10.937,10.937,0,0,0,15.472.007,10.938,10.938,0,0,0,.007-15.474,10.942,10.942,0,0,0-15.472-.007l0,0a10.9,10.9,0,0,0-2.921,5.275h7.263a2.448,2.448,0,0,1,1.729.718,2.441,2.441,0,0,1,0,3.454,2.436,2.436,0,0,1-1.729.718h-7.27A10.9,10.9,0,0,0-2867.2-8566.09Zm-7.9-10.193a15.758,15.758,0,0,1,4.445-8.734,15.775,15.775,0,0,1,8.689-4.431v-10.25a25.878,25.878,0,0,0-15.867,7.493,25.876,25.876,0,0,0-7.492,15.922Zm-18.874,0a25.86,25.86,0,0,0-6.974-12.635,25.875,25.875,0,0,0-15.924-7.494v10.228a15.754,15.754,0,0,1,8.734,4.443v0a15.8,15.8,0,0,1,3.559,5.456Zm-3.545-16.065a30.692,30.692,0,0,1,7.732,12.924,30.689,30.689,0,0,1,8.523-16.211,30.682,30.682,0,0,1,15.8-8.445,30.7,30.7,0,0,1-15.859-8.456,30.7,30.7,0,0,1-7.933-13.627,30.7,30.7,0,0,1-8.644,16.914,30.693,30.693,0,0,1-15.646,8.413A30.69,30.69,0,0,1-2897.523-8592.349Zm-40.55-57.079a25.982,25.982,0,0,0-.009,36.745v0l.009.007a25.878,25.878,0,0,0,16.309,7.524v-10.223a15.772,15.772,0,0,1-9.133-4.494,15.831,15.831,0,0,1,0-22.387,15.829,15.829,0,0,1,22.387,0,15.757,15.757,0,0,1,4.451,8.766h10.224a25.872,25.872,0,0,0-7.491-15.929,25.905,25.905,0,0,0-18.378-7.614A25.9,25.9,0,0,0-2938.073-8649.428Zm21.2,44.206a25.87,25.87,0,0,0,15.546-7.459,25.88,25.88,0,0,0,7.492-15.922h-10.227a15.764,15.764,0,0,1-4.444,8.734,15.774,15.774,0,0,1-8.367,4.377Zm59.8-3.251a25.874,25.874,0,0,0,15.926-7.493,25.984,25.984,0,0,0,.009-36.745,25.987,25.987,0,0,0-36.747-.009v0l-.007.006a25.908,25.908,0,0,0-7.593,19.221h10.18a15.807,15.807,0,0,1,4.6-12.041,15.832,15.832,0,0,1,22.387,0,15.83,15.83,0,0,1,0,22.388,15.761,15.761,0,0,1-8.763,4.451Zm-20.812-7.5a25.873,25.873,0,0,0,15.922,7.494V-8618.7a15.756,15.756,0,0,1-8.734-4.445,15.79,15.79,0,0,1-3.559-5.458h-10.6A25.856,25.856,0,0,0-2877.892-8615.968Zm-49.548-22.835a10.942,10.942,0,0,0-.007,15.474,10.943,10.943,0,0,0,15.474.006l0,0a10.9,10.9,0,0,0,2.92-5.275h-7.262a2.445,2.445,0,0,1-1.729-.716,2.444,2.444,0,0,1,0-3.457,2.432,2.432,0,0,1,1.729-.715h7.27a10.9,10.9,0,0,0-2.926-5.307,10.906,10.906,0,0,0-7.74-3.208A10.906,10.906,0,0,0-2927.439-8638.8Zm69.642,6.126a2.448,2.448,0,0,1,.718,1.731v7.27a10.892,10.892,0,0,0,5.3-2.926,10.94,10.94,0,0,0,.007-15.474,10.94,10.94,0,0,0-15.472-.006,10.942,10.942,0,0,0-.009,15.474l0,0a10.914,10.914,0,0,0,5.275,2.921v-7.265a2.437,2.437,0,0,1,.716-1.728,2.44,2.44,0,0,1,1.729-.717A2.437,2.437,0,0,1-2857.8-8632.677Z" transform="translate(-8421.218 2951.04) rotate(90)" fill="#61bfdb" stroke="rgba(0,0,0,0)" stroke-miterlimit="10" stroke-width="1" opacity="0.2"/>
</svg>
