<svg xmlns="http://www.w3.org/2000/svg" width="23.457" height="23.46" viewBox="0 0 23.457 23.46">
  <path id="phone-solid_9_" data-name="phone-solid (9)" d="M23.422,17.726l-1.065,4.618a1.424,1.424,0,0,1-1.4,1.11A20.985,20.985,0,0,1,0,2.491,1.423,1.423,0,0,1,1.11,1.1L5.728.031a1.438,1.438,0,0,1,1.639.83L9.5,5.833A1.434,1.434,0,0,1,9.088,7.5L6.621,9.483a16.021,16.021,0,0,0,7.308,7.308l2.02-2.465a1.425,1.425,0,0,1,1.671-.411l4.971,2.131A1.563,1.563,0,0,1,23.422,17.726Z" transform="translate(0 0.006)" fill="#042745"/>
</svg>
