<svg xmlns="http://www.w3.org/2000/svg" width="31" height="31.045" viewBox="0 0 31 31.045">
  <g id="phone-call-svgrepo-com" transform="translate(-0.344 0)">
    <g id="Gruppe_7648" data-name="Gruppe 7648" transform="translate(0.344 0)">
      <path id="Pfad_23781" data-name="Pfad 23781" d="M24.857,44.842a3.053,3.053,0,0,0-2.215-1.016A3.157,3.157,0,0,0,20.4,44.835L18.331,46.9c-.17-.092-.341-.177-.5-.262-.236-.118-.459-.229-.649-.347a22.5,22.5,0,0,1-5.393-4.914,13.276,13.276,0,0,1-1.769-2.791c.537-.491,1.035-1,1.52-1.494.183-.183.367-.373.55-.557a3.006,3.006,0,0,0,0-4.534L10.3,30.21c-.2-.2-.413-.413-.609-.622-.393-.406-.806-.826-1.232-1.219a3.1,3.1,0,0,0-2.2-.963,3.21,3.21,0,0,0-2.228.963l-.013.013L1.793,30.63A4.794,4.794,0,0,0,.371,33.677a11.486,11.486,0,0,0,.839,4.862A28.212,28.212,0,0,0,6.223,46.9a30.834,30.834,0,0,0,10.267,8.04,16,16,0,0,0,5.766,1.7c.138.007.282.013.413.013A4.937,4.937,0,0,0,26.45,55.03c.007-.013.02-.02.026-.033a14.9,14.9,0,0,1,1.147-1.186c.282-.269.57-.55.852-.845a3.269,3.269,0,0,0,.989-2.267,3.149,3.149,0,0,0-1.009-2.247Zm2.346,6.9c-.007,0-.007.007,0,0-.256.275-.518.524-.8.8a17.229,17.229,0,0,0-1.265,1.31,3.159,3.159,0,0,1-2.464,1.042c-.1,0-.2,0-.3-.007a14.211,14.211,0,0,1-5.111-1.533,29.106,29.106,0,0,1-9.671-7.574,26.6,26.6,0,0,1-4.718-7.856,9.356,9.356,0,0,1-.734-4.1,3.008,3.008,0,0,1,.9-1.946L5.279,29.64a1.489,1.489,0,0,1,1-.465,1.4,1.4,0,0,1,.957.459l.02.02c.4.373.78.76,1.179,1.173.2.21.413.419.622.636l1.789,1.789a1.251,1.251,0,0,1,0,2.031c-.19.19-.373.38-.563.563-.55.563-1.075,1.088-1.645,1.6-.013.013-.026.02-.033.033a1.336,1.336,0,0,0-.341,1.487l.02.059A14.361,14.361,0,0,0,10.4,42.476l.007.007a24.049,24.049,0,0,0,5.818,5.294,8.946,8.946,0,0,0,.806.439c.236.118.459.229.649.347.026.013.052.033.079.046a1.42,1.42,0,0,0,.649.164,1.4,1.4,0,0,0,1-.452L21.64,46.08a1.482,1.482,0,0,1,.989-.491,1.334,1.334,0,0,1,.944.478l.013.013,3.61,3.61A1.3,1.3,0,0,1,27.2,51.741Z" transform="translate(-0.344 -25.61)"/>
      <path id="Pfad_23782" data-name="Pfad 23782" d="M245.672,87.68a8.433,8.433,0,0,1,6.867,6.867.879.879,0,0,0,.871.734,1.169,1.169,0,0,0,.151-.013.885.885,0,0,0,.727-1.022,10.2,10.2,0,0,0-8.308-8.308.889.889,0,0,0-1.022.721A.875.875,0,0,0,245.672,87.68Z" transform="translate(-228.917 -80.295)"/>
      <path id="Pfad_23783" data-name="Pfad 23783" d="M263.484,13.695A16.79,16.79,0,0,0,249.8.014a.883.883,0,1,0-.288,1.743,15,15,0,0,1,12.227,12.227.879.879,0,0,0,.871.734,1.169,1.169,0,0,0,.151-.013A.868.868,0,0,0,263.484,13.695Z" transform="translate(-232.497 0)"/>
    </g>
  </g>
</svg>
